<svg xmlns="http://www.w3.org/2000/svg" xmlns:xlink="http://www.w3.org/1999/xlink" width="1080" zoomAndPan="magnify" viewBox="0 0 810 809.999993" height="1080" preserveAspectRatio="xMidYMid meet" version="1.0"><defs><g/><clipPath id="b8002fd5c4"><path d="M 0.00390625 0.0625 L 809.996094 0.0625 L 809.996094 809.992188 L 0.00390625 809.992188 Z M 0.00390625 0.0625 " clip-rule="nonzero"/></clipPath><clipPath id="38af65f2fa"><rect x="0" width="296" y="0" height="810"/></clipPath><clipPath id="f630dacee0"><rect x="0" width="269" y="0" height="715"/></clipPath><clipPath id="a83934856d"><path d="M 256 351.441406 L 389 351.441406 L 389 437.691406 L 256 437.691406 Z M 256 351.441406 " clip-rule="nonzero"/></clipPath><clipPath id="348a95955a"><path d="M 317.429688 435.628906 L 368.28125 435.628906 L 368.28125 443.09375 L 317.429688 443.09375 Z M 317.429688 435.628906 " clip-rule="nonzero"/></clipPath><clipPath id="287ebe9fea"><path d="M 329.773438 435.675781 C 348.675781 440.25 355.726562 440.175781 360.074219 439.726562 C 363 439.351562 365.925781 437.625 367.199219 438 C 367.726562 438.148438 368.023438 438.601562 368.175781 438.976562 C 368.324219 439.351562 368.25 440.023438 367.949219 440.324219 C 367.425781 440.925781 366.074219 440.851562 364.425781 441.074219 C 360.148438 441.601562 349.199219 442.574219 341.550781 442.351562 C 333.898438 442.050781 321.148438 441 318.523438 439.5 C 317.773438 439.050781 317.476562 438.601562 317.476562 438.148438 C 317.476562 437.699219 317.773438 437.023438 318.375 436.648438 C 319.726562 435.898438 324.976562 436.199219 327.449219 436.425781 C 329.175781 436.574219 331.125 436.648438 331.875 437.25 C 332.25 437.550781 332.398438 438.148438 332.324219 438.523438 C 332.25 439.050781 331.5 439.726562 331.050781 439.875 C 330.601562 439.949219 330 439.648438 329.699219 439.351562 C 329.476562 439.050781 329.324219 438.375 329.398438 438 C 329.476562 437.550781 329.925781 437.101562 330.300781 436.949219 C 330.75 436.800781 331.351562 436.875 331.726562 437.175781 C 332.023438 437.398438 332.398438 438 332.324219 438.375 C 332.324219 438.898438 331.949219 439.5 331.199219 439.800781 C 329.324219 440.699219 320.324219 440.550781 318.523438 439.5 C 317.773438 439.050781 317.398438 438.300781 317.476562 437.773438 C 317.550781 437.324219 317.925781 436.875 318.675781 436.574219 C 321.523438 435.601562 333.675781 439.050781 341.476562 439.351562 C 349.800781 439.648438 364.425781 436.351562 367.199219 438 C 368.023438 438.523438 368.324219 439.425781 368.101562 440.023438 C 367.875 440.851562 366.523438 441.601562 364.800781 442.125 C 360.824219 443.324219 349.351562 443.324219 342.824219 442.425781 C 337.5 441.75 330.074219 440.023438 328.425781 438.300781 C 327.824219 437.699219 327.675781 436.875 327.898438 436.425781 C 328.125 435.976562 329.773438 435.675781 329.773438 435.675781 " clip-rule="nonzero"/></clipPath><clipPath id="99fef68c30"><path d="M 0.429688 0.628906 L 51.28125 0.628906 L 51.28125 8.09375 L 0.429688 8.09375 Z M 0.429688 0.628906 " clip-rule="nonzero"/></clipPath><clipPath id="f5ba3aac74"><path d="M 12.773438 0.675781 C 31.675781 5.25 38.726562 5.175781 43.074219 4.726562 C 46 4.351562 48.925781 2.625 50.199219 3 C 50.726562 3.148438 51.023438 3.601562 51.175781 3.976562 C 51.324219 4.351562 51.25 5.023438 50.949219 5.324219 C 50.425781 5.925781 49.074219 5.851562 47.425781 6.074219 C 43.148438 6.601562 32.199219 7.574219 24.550781 7.351562 C 16.898438 7.050781 4.148438 6 1.523438 4.5 C 0.773438 4.050781 0.476562 3.601562 0.476562 3.148438 C 0.476562 2.699219 0.773438 2.023438 1.375 1.648438 C 2.726562 0.898438 7.976562 1.199219 10.449219 1.425781 C 12.175781 1.574219 14.125 1.648438 14.875 2.25 C 15.25 2.550781 15.398438 3.148438 15.324219 3.523438 C 15.25 4.050781 14.5 4.726562 14.050781 4.875 C 13.601562 4.949219 13 4.648438 12.699219 4.351562 C 12.476562 4.050781 12.324219 3.375 12.398438 3 C 12.476562 2.550781 12.925781 2.101562 13.300781 1.949219 C 13.75 1.800781 14.351562 1.875 14.726562 2.175781 C 15.023438 2.398438 15.398438 3 15.324219 3.375 C 15.324219 3.898438 14.949219 4.5 14.199219 4.800781 C 12.324219 5.699219 3.324219 5.550781 1.523438 4.5 C 0.773438 4.050781 0.398438 3.300781 0.476562 2.773438 C 0.550781 2.324219 0.925781 1.875 1.675781 1.574219 C 4.523438 0.601562 16.675781 4.050781 24.476562 4.351562 C 32.800781 4.648438 47.425781 1.351562 50.199219 3 C 51.023438 3.523438 51.324219 4.425781 51.101562 5.023438 C 50.875 5.851562 49.523438 6.601562 47.800781 7.125 C 43.824219 8.324219 32.351562 8.324219 25.824219 7.425781 C 20.5 6.75 13.074219 5.023438 11.425781 3.300781 C 10.824219 2.699219 10.675781 1.875 10.898438 1.425781 C 11.125 0.976562 12.773438 0.675781 12.773438 0.675781 " clip-rule="nonzero"/></clipPath><clipPath id="703791fabc"><rect x="0" width="52" y="0" height="9"/></clipPath><clipPath id="c81438fc97"><path d="M 330.554688 414.628906 L 402.605469 414.628906 L 402.605469 463.785156 L 330.554688 463.785156 Z M 330.554688 414.628906 " clip-rule="nonzero"/></clipPath><clipPath id="24702a7126"><path d="M 360.300781 448.273438 C 360.75 441.675781 381.148438 444.898438 381.675781 447.601562 C 382.273438 450.148438 369.898438 456.300781 364.800781 458.925781 C 361.050781 460.949219 357.148438 462.300781 354.375 463.050781 C 352.574219 463.5 351.601562 463.800781 349.875 463.726562 C 347.398438 463.574219 343.351562 462.675781 341.101562 461.773438 C 339.523438 461.101562 338.625 460.425781 337.351562 459.226562 C 335.550781 457.574219 333.148438 454.648438 332.101562 451.949219 C 330.976562 449.324219 330.523438 446.023438 330.824219 443.101562 C 331.125 440.175781 332.175781 437.101562 333.824219 434.625 C 335.398438 432.226562 336.824219 430.050781 340.425781 428.550781 C 348 425.25 374.398438 425.398438 382.050781 425.398438 C 384.976562 425.398438 386.175781 425.324219 388.125 425.851562 C 390 426.300781 392.023438 427.125 393.675781 428.175781 C 395.398438 429.226562 396.976562 430.574219 398.25 432.148438 C 399.523438 433.726562 400.574219 435.523438 401.324219 437.398438 C 402 439.273438 402.449219 441.375 402.523438 443.324219 C 402.601562 445.351562 402.300781 447.449219 401.773438 449.324219 C 401.175781 451.273438 400.273438 453.226562 399.148438 454.800781 C 397.949219 456.449219 396.449219 457.949219 394.875 459.148438 C 393.300781 460.351562 391.351562 461.324219 389.476562 461.925781 C 387.601562 462.523438 385.5 462.824219 383.476562 462.824219 C 381.449219 462.75 379.351562 462.375 377.476562 461.699219 C 375.601562 461.023438 373.726562 460.050781 372.148438 458.773438 C 370.648438 457.574219 369.148438 456 368.101562 454.351562 C 366.976562 452.625 366.148438 450.75 365.625 448.800781 C 365.101562 446.851562 364.949219 444.75 365.101562 442.726562 C 365.175781 440.773438 365.699219 438.675781 366.449219 436.875 C 367.199219 435 368.324219 433.199219 369.675781 431.699219 C 371.023438 430.199219 372.601562 428.851562 374.324219 427.875 C 376.050781 426.824219 378.074219 426.074219 380.023438 425.699219 C 381.976562 425.25 384.148438 425.175781 386.101562 425.476562 C 388.050781 425.699219 390.148438 426.300781 391.949219 427.199219 C 393.675781 428.023438 395.476562 429.226562 396.898438 430.648438 C 398.324219 432.074219 399.601562 433.800781 400.5 435.523438 C 401.398438 437.324219 402 439.351562 402.300781 441.300781 C 402.601562 443.324219 402.601562 445.425781 402.226562 447.375 C 401.851562 449.324219 401.175781 451.351562 400.199219 453.074219 C 399.226562 454.875 397.875 456.523438 396.449219 457.875 C 394.949219 459.226562 393.523438 460.273438 391.351562 461.175781 C 388.425781 462.449219 384.375 463.425781 379.949219 463.648438 C 373.949219 464.023438 364.050781 460.949219 358.574219 461.324219 C 354.976562 461.625 352.800781 463.648438 349.875 463.726562 C 346.949219 463.726562 343.726562 463.050781 341.101562 461.773438 C 338.550781 460.425781 335.851562 457.800781 334.273438 455.925781 C 333.148438 454.574219 332.625 453.375 332.101562 451.949219 C 331.5 450.601562 331.050781 449.324219 330.898438 447.601562 C 330.675781 445.199219 330.824219 441.449219 331.800781 438.675781 C 332.773438 435.976562 335.023438 432.976562 336.75 431.175781 C 337.949219 429.976562 339.300781 428.699219 340.351562 428.550781 C 341.175781 428.476562 341.476562 429.449219 342.449219 429.375 C 345.675781 429 354.824219 417.898438 361.875 415.949219 C 368.851562 414 379.050781 414.074219 384.675781 417.375 C 389.851562 420.449219 393.226562 428.925781 395.175781 433.800781 C 396.601562 437.175781 396.976562 440.476562 397.125 443.023438 C 397.199219 444.75 397.125 445.875 396.675781 447.523438 C 396 449.851562 394.574219 453.375 392.699219 455.550781 C 390.824219 457.800781 387.601562 459.75 385.425781 460.800781 C 383.851562 461.550781 382.5 461.773438 381 462 C 379.574219 462.226562 378.226562 462.375 376.5 462.074219 C 374.101562 461.699219 370.5 460.648438 368.023438 459.074219 C 365.625 457.5 363.300781 454.574219 361.949219 452.476562 C 361.050781 451.050781 360.300781 448.273438 360.300781 448.273438 " clip-rule="nonzero"/></clipPath><clipPath id="308283ac28"><path d="M 0.554688 0.628906 L 72.605469 0.628906 L 72.605469 49.785156 L 0.554688 49.785156 Z M 0.554688 0.628906 " clip-rule="nonzero"/></clipPath><clipPath id="d8c7997434"><path d="M 30.300781 34.273438 C 30.75 27.675781 51.148438 30.898438 51.675781 33.601562 C 52.273438 36.148438 39.898438 42.300781 34.800781 44.925781 C 31.050781 46.949219 27.148438 48.300781 24.375 49.050781 C 22.574219 49.5 21.601562 49.800781 19.875 49.726562 C 17.398438 49.574219 13.351562 48.675781 11.101562 47.773438 C 9.523438 47.101562 8.625 46.425781 7.351562 45.226562 C 5.550781 43.574219 3.148438 40.648438 2.101562 37.949219 C 0.976562 35.324219 0.523438 32.023438 0.824219 29.101562 C 1.125 26.175781 2.175781 23.101562 3.824219 20.625 C 5.398438 18.226562 6.824219 16.050781 10.425781 14.550781 C 18 11.25 44.398438 11.398438 52.050781 11.398438 C 54.976562 11.398438 56.175781 11.324219 58.125 11.851562 C 60 12.300781 62.023438 13.125 63.675781 14.175781 C 65.398438 15.226562 66.976562 16.574219 68.25 18.148438 C 69.523438 19.726562 70.574219 21.523438 71.324219 23.398438 C 72 25.273438 72.449219 27.375 72.523438 29.324219 C 72.601562 31.351562 72.300781 33.449219 71.773438 35.324219 C 71.175781 37.273438 70.273438 39.226562 69.148438 40.800781 C 67.949219 42.449219 66.449219 43.949219 64.875 45.148438 C 63.300781 46.351562 61.351562 47.324219 59.476562 47.925781 C 57.601562 48.523438 55.5 48.824219 53.476562 48.824219 C 51.449219 48.75 49.351562 48.375 47.476562 47.699219 C 45.601562 47.023438 43.726562 46.050781 42.148438 44.773438 C 40.648438 43.574219 39.148438 42 38.101562 40.351562 C 36.976562 38.625 36.148438 36.75 35.625 34.800781 C 35.101562 32.851562 34.949219 30.75 35.101562 28.726562 C 35.175781 26.773438 35.699219 24.675781 36.449219 22.875 C 37.199219 21 38.324219 19.199219 39.675781 17.699219 C 41.023438 16.199219 42.601562 14.851562 44.324219 13.875 C 46.050781 12.824219 48.074219 12.074219 50.023438 11.699219 C 51.976562 11.25 54.148438 11.175781 56.101562 11.476562 C 58.050781 11.699219 60.148438 12.300781 61.949219 13.199219 C 63.675781 14.023438 65.476562 15.226562 66.898438 16.648438 C 68.324219 18.074219 69.601562 19.800781 70.5 21.523438 C 71.398438 23.324219 72 25.351562 72.300781 27.300781 C 72.601562 29.324219 72.601562 31.425781 72.226562 33.375 C 71.851562 35.324219 71.175781 37.351562 70.199219 39.074219 C 69.226562 40.875 67.875 42.523438 66.449219 43.875 C 64.949219 45.226562 63.523438 46.273438 61.351562 47.175781 C 58.425781 48.449219 54.375 49.425781 49.949219 49.648438 C 43.949219 50.023438 34.050781 46.949219 28.574219 47.324219 C 24.976562 47.625 22.800781 49.648438 19.875 49.726562 C 16.949219 49.726562 13.726562 49.050781 11.101562 47.773438 C 8.550781 46.425781 5.851562 43.800781 4.273438 41.925781 C 3.148438 40.574219 2.625 39.375 2.101562 37.949219 C 1.5 36.601562 1.050781 35.324219 0.898438 33.601562 C 0.675781 31.199219 0.824219 27.449219 1.800781 24.675781 C 2.773438 21.976562 5.023438 18.976562 6.75 17.175781 C 7.949219 15.976562 9.300781 14.699219 10.351562 14.550781 C 11.175781 14.476562 11.476562 15.449219 12.449219 15.375 C 15.675781 15 24.824219 3.898438 31.875 1.949219 C 38.851562 0 49.050781 0.0742188 54.675781 3.375 C 59.851562 6.449219 63.226562 14.925781 65.175781 19.800781 C 66.601562 23.175781 66.976562 26.476562 67.125 29.023438 C 67.199219 30.75 67.125 31.875 66.675781 33.523438 C 66 35.851562 64.574219 39.375 62.699219 41.550781 C 60.824219 43.800781 57.601562 45.75 55.425781 46.800781 C 53.851562 47.550781 52.5 47.773438 51 48 C 49.574219 48.226562 48.226562 48.375 46.5 48.074219 C 44.101562 47.699219 40.5 46.648438 38.023438 45.074219 C 35.625 43.5 33.300781 40.574219 31.949219 38.476562 C 31.050781 37.050781 30.300781 34.273438 30.300781 34.273438 " clip-rule="nonzero"/></clipPath><clipPath id="55ae9fb7b2"><rect x="0" width="73" y="0" height="50"/></clipPath></defs><g clip-path="url(#b8002fd5c4)"><path stroke-linecap="butt" transform="matrix(0.75, 0, 0, 0.75, 0.0048473, 0.0606611)" fill="none" stroke-linejoin="miter" d="M -0.00125474 0.00245188 L 1079.988383 0.00245188 L 1079.988383 1079.908756 L -0.00125474 1079.908756 Z M -0.00125474 0.00245188 " stroke="#f0f0f0" stroke-width="128" stroke-opacity="1" stroke-miterlimit="4"/></g><g transform="matrix(1, 0, 0, 1, 322, 0.000000000000039746)"><g clip-path="url(#38af65f2fa)"><g fill="#f0f0f0" fill-opacity="1"><g transform="translate(0.491843, 594.800215)"><g><path d="M 111.171875 -48.96875 L 272.640625 -48.96875 L 272.640625 0 L 50.953125 0 L 50.953125 -461.25 L 111.171875 -461.25 Z M 111.171875 -48.96875 "/></g></g></g></g></g><g transform="matrix(1, 0, 0, 1, 189, 62)"><g clip-path="url(#f630dacee0)"><g fill="#f0f0f0" fill-opacity="1"><g transform="translate(0.46744, 536.303899)"><g><path d="M 137.421875 4.5625 C 116.117188 4.5625 97.015625 0.929688 80.109375 -6.328125 C 63.210938 -13.597656 49.863281 -23.738281 40.0625 -36.75 C 30.257812 -49.769531 24.847656 -64.734375 23.828125 -81.640625 L 71.5 -81.640625 C 72.851562 -67.773438 79.359375 -56.445312 91.015625 -47.65625 C 102.679688 -38.875 117.976562 -34.484375 136.90625 -34.484375 C 154.488281 -34.484375 168.347656 -38.367188 178.484375 -46.140625 C 188.628906 -53.921875 193.703125 -63.722656 193.703125 -75.546875 C 193.703125 -87.722656 188.289062 -96.769531 177.46875 -102.6875 C 166.65625 -108.601562 149.925781 -114.429688 127.28125 -120.171875 C 106.65625 -125.585938 89.832031 -131.082031 76.8125 -136.65625 C 63.800781 -142.238281 52.644531 -150.519531 43.34375 -161.5 C 34.050781 -172.488281 29.40625 -186.941406 29.40625 -204.859375 C 29.40625 -219.054688 33.628906 -232.070312 42.078125 -243.90625 C 50.535156 -255.738281 62.539062 -265.117188 78.09375 -272.046875 C 93.644531 -278.972656 111.390625 -282.4375 131.328125 -282.4375 C 162.097656 -282.4375 186.945312 -274.660156 205.875 -259.109375 C 224.800781 -243.566406 234.941406 -222.269531 236.296875 -195.21875 L 190.15625 -195.21875 C 189.144531 -209.757812 183.3125 -221.421875 172.65625 -230.203125 C 162.007812 -238.992188 147.726562 -243.390625 129.8125 -243.390625 C 113.25 -243.390625 100.0625 -239.835938 90.25 -232.734375 C 80.445312 -225.640625 75.546875 -216.347656 75.546875 -204.859375 C 75.546875 -195.734375 78.503906 -188.210938 84.421875 -182.296875 C 90.335938 -176.378906 97.773438 -171.644531 106.734375 -168.09375 C 115.691406 -164.539062 128.117188 -160.570312 144.015625 -156.1875 C 163.953125 -150.769531 180.175781 -145.441406 192.6875 -140.203125 C 205.195312 -134.960938 215.929688 -127.101562 224.890625 -116.625 C 233.847656 -106.144531 238.492188 -92.453125 238.828125 -75.546875 C 238.828125 -60.335938 234.601562 -46.644531 226.15625 -34.46875 C 217.707031 -22.300781 205.789062 -12.753906 190.40625 -5.828125 C 175.019531 1.097656 157.359375 4.5625 137.421875 4.5625 Z M 137.421875 4.5625 "/></g></g></g></g></g><g clip-path="url(#a83934856d)"><path fill="#f0f0f0" d="M 386.964844 387.875 C 380.480469 376.984375 371.210938 367.859375 360.15625 361.484375 C 348.769531 354.914062 335.742188 351.441406 322.480469 351.441406 C 309.214844 351.441406 296.183594 354.914062 284.800781 361.484375 C 273.742188 367.859375 264.472656 376.984375 257.992188 387.875 C 255.570312 391.945312 255.570312 397.003906 257.996094 401.078125 C 264.476562 411.964844 273.746094 421.089844 284.800781 427.464844 C 296.1875 434.03125 309.214844 437.503906 322.480469 437.503906 C 335.738281 437.503906 348.769531 434.03125 360.152344 427.464844 C 371.207031 421.089844 380.480469 411.964844 386.960938 401.074219 C 389.382812 397 389.386719 391.945312 386.964844 387.875 Z M 322.476562 427.519531 C 304.226562 427.519531 289.429688 412.726562 289.429688 394.472656 C 289.429688 376.222656 304.226562 361.425781 322.476562 361.425781 C 340.730469 361.425781 355.523438 376.222656 355.523438 394.472656 C 355.523438 412.726562 340.730469 427.519531 322.476562 427.519531 Z M 322.476562 427.519531 " fill-opacity="1" fill-rule="nonzero"/></g><path fill="#f0f0f0" d="M 322.476562 375.472656 C 311.984375 375.472656 303.480469 383.980469 303.480469 394.472656 C 303.480469 404.964844 311.984375 413.472656 322.476562 413.472656 C 332.96875 413.472656 341.472656 404.964844 341.472656 394.472656 C 341.472656 383.980469 332.96875 375.472656 322.476562 375.472656 Z M 322.476562 375.472656 " fill-opacity="1" fill-rule="nonzero"/><g clip-path="url(#348a95955a)"><g clip-path="url(#287ebe9fea)"><g transform="matrix(1, 0, 0, 1, 317, 435)"><g clip-path="url(#703791fabc)"><g clip-path="url(#99fef68c30)"><g clip-path="url(#f5ba3aac74)"><rect x="-495.2" width="1166.4" fill="#f0f0f0" height="1166.39999" y="-613.199998" fill-opacity="1"/></g></g></g></g></g></g><g clip-path="url(#c81438fc97)"><g clip-path="url(#24702a7126)"><g transform="matrix(1, 0, 0, 1, 330, 414)"><g clip-path="url(#55ae9fb7b2)"><g clip-path="url(#308283ac28)"><g clip-path="url(#d8c7997434)"><rect x="-508.2" width="1166.4" fill="#f0f0f0" height="1166.39999" y="-592.199998" fill-opacity="1"/></g></g></g></g></g></g></svg>