<svg xmlns="http://www.w3.org/2000/svg" xmlns:xlink="http://www.w3.org/1999/xlink" width="1080" zoomAndPan="magnify" viewBox="0 0 810 809.999993" height="1080" preserveAspectRatio="xMidYMid meet" version="1.0"><defs><clipPath id="1168927ec4"><path d="M 0 19.882812 L 808 19.882812 L 808 790.132812 L 0 790.132812 Z M 0 19.882812 " clip-rule="nonzero"/></clipPath></defs><g clip-path="url(#1168927ec4)"><path fill="#143463" d="M 214.5625 80.730469 L 159.492188 25.660156 C 67.253906 95.941406 6.40625 204.542969 0.632812 327.972656 L 77.652344 327.972656 C 83.621094 225.917969 136.191406 136.570312 214.5625 80.730469 Z M 730.421875 327.972656 L 807.441406 327.972656 C 801.667969 204.542969 740.820312 95.941406 648.585938 25.660156 L 593.707031 80.539062 C 671.882812 136.570312 724.453125 225.917969 730.421875 327.972656 Z M 654.359375 347.226562 C 654.359375 228.804688 572.140625 130.023438 461.804688 103.835938 L 461.804688 77.648438 C 461.804688 45.683594 436 19.882812 404.039062 19.882812 C 372.074219 19.882812 346.269531 45.683594 346.269531 77.648438 L 346.269531 103.835938 C 235.933594 130.023438 153.714844 228.804688 153.714844 347.226562 L 153.714844 559.039062 L 76.691406 636.0625 L 76.691406 674.574219 L 731.382812 674.574219 L 731.382812 636.0625 L 654.359375 559.039062 Z M 404.039062 790.109375 C 409.429688 790.109375 414.628906 789.53125 419.632812 788.566406 C 444.667969 783.367188 465.269531 766.039062 475.089844 743.125 C 478.941406 733.882812 481.058594 723.867188 481.058594 713.085938 L 327.015625 713.085938 C 327.015625 755.640625 361.480469 790.109375 404.039062 790.109375 Z M 404.039062 790.109375 " fill-opacity="1" fill-rule="nonzero"/></g></svg>