<svg xmlns="http://www.w3.org/2000/svg" xmlns:xlink="http://www.w3.org/1999/xlink" width="1080" zoomAndPan="magnify" viewBox="0 0 810 809.999993" height="1080" preserveAspectRatio="xMidYMid meet" version="1.0"><defs><clipPath id="6c3c4a3f84"><path d="M 405 0 C 181.324219 0 0 181.324219 0 405 C 0 628.675781 181.324219 810 405 810 C 628.675781 810 810 628.675781 810 405 C 810 181.324219 628.675781 0 405 0 Z M 405 0 " clip-rule="nonzero"/></clipPath><clipPath id="2485403fc5"><path d="M 0 0 L 810 0 L 810 810 L 0 810 Z M 0 0 " clip-rule="nonzero"/></clipPath><clipPath id="b38f8648d6"><path d="M 405 0 C 181.324219 0 0 181.324219 0 405 C 0 628.675781 181.324219 810 405 810 C 628.675781 810 810 628.675781 810 405 C 810 181.324219 628.675781 0 405 0 Z M 405 0 " clip-rule="nonzero"/></clipPath><clipPath id="7ab0ff0e7e"><rect x="0" width="810" y="0" height="810"/></clipPath><clipPath id="adf147f27a"><path d="M 204.148438 179.640625 L 606 179.640625 L 606 630.390625 L 204.148438 630.390625 Z M 204.148438 179.640625 " clip-rule="nonzero"/></clipPath></defs><g clip-path="url(#6c3c4a3f84)"><g transform="matrix(1, 0, 0, 1, 0, 0.000000000000039746)"><g clip-path="url(#7ab0ff0e7e)"><g clip-path="url(#2485403fc5)"><g clip-path="url(#b38f8648d6)"><rect x="-178.2" width="1166.4" fill="#143463" height="1166.39999" y="-178.199998" fill-opacity="1"/></g></g></g></g></g><g clip-path="url(#adf147f27a)"><path fill="#ffffff" d="M 204.300781 179.644531 L 288.746094 395.625 L 204.300781 630.316406 L 605.71875 391.351562 L 204.300781 179.644531 " fill-opacity="1" fill-rule="nonzero"/></g></svg>